<svg aria-hidden="true" style="position: absolute; width: 0; height: 0; overflow: hidden;" version="1.1" xmlns="http://www.w3.org/2000/svg" xmlns:xlink="http://www.w3.org/1999/xlink">
<defs>
<symbol id="icon-location" viewBox="0 0 32 32">
<path d="M16 27.85l-0.45-0.55c-0.3-0.4-7.95-9.35-7.95-14.7 0-4.65 3.8-8.4 8.4-8.4s8.4 3.8 8.4 8.4c0 5.35-7.65 14.35-7.95 14.7l-0.45 0.55zM16 5.35c-4 0-7.2 3.25-7.2 7.2 0 4.2 5.55 11.35 7.2 13.4 1.65-2.050 7.2-9.15 7.2-13.4 0-3.95-3.2-7.2-7.2-7.2z"></path>
<path d="M16 15.8c-1.75 0-3.2-1.45-3.2-3.2s1.45-3.2 3.2-3.2 3.2 1.45 3.2 3.2-1.45 3.2-3.2 3.2zM16 10.6c-1.1 0-2 0.9-2 2s0.9 2 2 2 2-0.9 2-2-0.9-2-2-2z"></path>
</symbol>
<symbol id="icon-linkedin" viewBox="0 0 32 32">
<path d="M23.333 11.999c-0.001 0-0.002 0-0.003 0-1.252 0-2.429 0.318-3.455 0.878l0.038-0.019c-0.196-0.507-0.68-0.859-1.245-0.859-0 0-0 0-0.001 0h-5.333c-0 0-0.001 0-0.001 0-0.736 0-1.333 0.597-1.333 1.333 0 0 0 0.001 0 0.001v-0 16c0 0 0 0 0 0.001 0 0.736 0.597 1.333 1.333 1.333 0 0 0.001 0 0.001 0h5.333c0 0 0 0 0.001 0 0.736 0 1.333-0.597 1.333-1.333 0-0 0-0.001 0-0.001v0-7.333c0-0.736 0.597-1.333 1.333-1.333s1.333 0.597 1.333 1.333v0 7.333c0 0 0 0 0 0.001 0 0.736 0.597 1.333 1.333 1.333 0 0 0.001 0 0.001 0h5.333c0 0 0 0 0.001 0 0.736 0 1.333-0.597 1.333-1.333 0-0 0-0.001 0-0.001v0-10c-0.005-4.048-3.285-7.328-7.333-7.333h-0zM28 27.999h-2.667v-6c0-2.209-1.791-4-4-4s-4 1.791-4 4v0 6h-2.667v-13.333h2.667v0.938c0 0.736 0.598 1.333 1.334 1.333 0.42 0 0.794-0.194 1.039-0.497l0.002-0.003c0.858-1.083 2.173-1.771 3.648-1.771 2.564 0 4.643 2.079 4.643 4.643 0 0.008-0 0.016-0 0.025v-0.001zM9.333 11.999h-5.333c-0 0-0.001 0-0.001 0-0.736 0-1.333 0.597-1.333 1.333 0 0 0 0.001 0 0.001v-0 16c0 0 0 0 0 0.001 0 0.736 0.597 1.333 1.333 1.333 0 0 0.001 0 0.001 0h5.333c0 0 0.001 0 0.001 0 0.736 0 1.333-0.597 1.333-1.333 0-0 0-0.001 0-0.001v0-16c0-0 0-0.001 0-0.001 0-0.736-0.597-1.333-1.333-1.333-0 0-0.001 0-0.001 0h0zM8 27.999h-2.667v-13.333h2.667zM6.686 2.056c-0.077-0.005-0.167-0.008-0.258-0.008-2.381 0-4.31 1.93-4.31 4.31s1.93 4.31 4.31 4.31c0.064 0 0.128-0.001 0.191-0.004l-0.009 0h0.038c0.076 0.005 0.166 0.008 0.256 0.008 2.381 0 4.311-1.93 4.311-4.311s-1.93-4.311-4.311-4.311c-0.077 0-0.153 0.002-0.228 0.006l0.011-0zM6.648 7.999h-0.038c-0.059 0.008-0.127 0.012-0.196 0.012-0.9 0-1.629-0.729-1.629-1.629 0-0.007 0-0.014 0-0.022v0.001c0-0.995 0.746-1.638 1.901-1.638 0.065-0.009 0.141-0.014 0.217-0.014 0.908 0 1.645 0.736 1.645 1.645 0 0.003 0 0.005-0 0.008v-0c0 0.995-0.746 1.638-1.9 1.638z"></path>
</symbol>
<symbol id="icon-github" viewBox="0 0 32 32">
<path d="M16 2.996c-7.364 0-13.333 5.97-13.333 13.334 0 5.855 3.774 10.829 9.023 12.622l0.094 0.028c0.667 0.117 0.917-0.283 0.917-0.633 0-0.317-0.017-1.367-0.017-2.483-3.35 0.617-4.217-0.817-4.483-1.567-0.31-0.751-0.775-1.382-1.36-1.878l-0.007-0.006c-0.467-0.25-1.133-0.867-0.017-0.883 0.886 0.099 1.633 0.619 2.043 1.353l0.007 0.014c0.497 0.88 1.425 1.464 2.49 1.464 0.512 0 0.992-0.135 1.407-0.371l-0.014 0.007c0.062-0.705 0.375-1.326 0.849-1.782l0.001-0.001c-2.967-0.333-6.067-1.483-6.067-6.583-0-0.022-0.001-0.048-0.001-0.073 0-1.355 0.52-2.589 1.371-3.514l-0.003 0.004c-0.174-0.476-0.275-1.026-0.275-1.599 0-0.7 0.15-1.365 0.42-1.965l-0.012 0.030s1.117-0.35 3.667 1.367c0.999-0.286 2.147-0.45 3.333-0.45s2.334 0.164 3.422 0.471l-0.089-0.021c2.55-1.733 3.667-1.367 3.667-1.367 0.258 0.569 0.408 1.234 0.408 1.935 0 0.573-0.101 1.123-0.285 1.632l0.011-0.033c0.848 0.916 1.367 2.147 1.367 3.498 0 0.030-0 0.060-0.001 0.090l0-0.005c0 5.117-3.117 6.25-6.083 6.583 0.562 0.57 0.91 1.353 0.91 2.218 0 0.088-0.004 0.174-0.011 0.26l0.001-0.011c0 1.783-0.017 3.217-0.017 3.667 0 0.35 0.25 0.767 0.917 0.633 5.325-1.832 9.083-6.799 9.083-12.643 0-7.365-5.969-13.336-13.333-13.34h-0z"></path>
</symbol>
<symbol id="icon-telegram" viewBox="0 0 32 32">
<path d="M29.26 3.686c-0.586-0.486-1.391-0.611-2.096-0.326l-23.889 9.645c-1.051 0.433-1.552 1.635-1.12 2.686 0.224 0.543 0.669 0.965 1.224 1.159l5.154 1.792 2.793 9.234c0.006 0.019 0.023 0.030 0.030 0.048 0.029 0.074 0.071 0.141 0.124 0.2 0.020 0.024 0.041 0.046 0.065 0.066 0.070 0.058 0.15 0.101 0.237 0.125 0.013 0.004 0.022 0.016 0.036 0.019l0.008-0 0.004 0.002c0.044 0.010 0.090 0.015 0.135 0.014 0.059-0.002 0.118-0.012 0.175-0.031 0.011-0.003 0.022-0.002 0.033-0.006 0.097-0.034 0.184-0.090 0.255-0.164 0.008-0.008 0.021-0.010 0.029-0.019l4.018-4.434 5.862 4.539c0.356 0.278 0.795 0.43 1.247 0.43 0.978-0 1.822-0.685 2.023-1.642l4.35-21.357c0.151-0.739-0.118-1.5-0.698-1.982zM12.784 20.393l-0.943 4.582-1.966-6.504 9.753-5.079-6.663 6.663c-0.092 0.092-0.155 0.209-0.181 0.337zM24.302 26.756c-0.051 0.245-0.226 0.447-0.462 0.531-0.231 0.089-0.491 0.049-0.685-0.104l-6.352-4.918c-0.275-0.213-0.667-0.178-0.901 0.079l-2.794 3.083 0.941-4.57 9.585-9.586c0.261-0.26 0.261-0.682 0.001-0.942-0.206-0.206-0.521-0.255-0.78-0.12l-13.818 7.196-5.223-1.815c-0.285-0.094-0.478-0.358-0.482-0.658-0.014-0.302 0.165-0.579 0.445-0.691l23.885-9.643c0.25-0.106 0.537-0.062 0.744 0.115 0.205 0.166 0.299 0.433 0.244 0.69l-4.349 21.354z"></path>
</symbol>
<symbol id="icon-email" viewBox="0 0 32 32">
<path d="M27.75 9.4l-0.95-0.95-8.8 8.8c-1.1 1.1-2.95 1.1-4.050 0l-8.8-8.75-0.95 0.95 6.55 6.55-6.55 6.55 0.95 0.95 6.55-6.55 1.3 1.3c0.8 0.8 1.85 1.25 2.95 1.25s2.15-0.45 2.95-1.25l1.3-1.3 6.55 6.55 0.95-0.95-6.55-6.55 6.6-6.6z"></path>
<path d="M25.9 25.2h-19.75c-1.15 0-2.1-0.95-2.1-2.1v-14.1c0-1.15 0.95-2.1 2.1-2.1h19.75c1.15 0 2.1 0.95 2.1 2.1v14.1c0 1.15-0.95 2.1-2.1 2.1zM6.1 8.25c-0.4 0-0.7 0.3-0.7 0.7v14.1c0 0.4 0.3 0.7 0.7 0.7h19.75c0.4 0 0.7-0.3 0.7-0.7v-14.1c0-0.4-0.3-0.7-0.7-0.7h-19.75z"></path>
</symbol>
<symbol id="icon-phone" viewBox="0 0 32 32">
<path d="M22.804 29.816c-0.001 0-0.001 0-0.002 0-1.19 0-2.306-0.319-3.266-0.876l0.031 0.017-0.139-0.078c-6.456-3.739-11.712-8.889-15.467-15.055l-0.108-0.191-0.725-1.208c-0.579-0.949-0.922-2.097-0.922-3.325 0-1.784 0.724-3.4 1.894-4.568l1.444-1.444c1.214-1.214 3.188-1.214 4.401 0l3.182 3.182c0.562 0.565 0.909 1.343 0.909 2.203 0 0.56-0.147 1.086-0.405 1.54l0.008-0.015-1.196 2.124c-0.019 0.033-0.030 0.073-0.030 0.115 0 0.065 0.026 0.124 0.069 0.166l7.085 7.085c0.043 0.042 0.102 0.068 0.167 0.068 0.043 0 0.083-0.011 0.118-0.031l-0.001 0.001 2.122-1.196c0.439-0.25 0.964-0.397 1.524-0.397 0.86 0 1.638 0.347 2.203 0.909l3.183 3.184c1.214 1.214 1.214 3.188 0 4.401l-1.508 1.507c-1.167 1.163-2.777 1.883-4.555 1.883-0.005 0-0.011 0-0.016-0h0.001zM7.744 4.384c-0.232 0-0.463 0.088-0.64 0.265l-1.444 1.443c-0.77 0.769-1.247 1.832-1.247 3.007 0 0.808 0.226 1.564 0.618 2.207l-0.011-0.019 0.725 1.208c3.664 6.030 8.65 10.916 14.578 14.358l0.196 0.105 0.139 0.078c1.684 0.963 3.802 0.691 5.155-0.664l1.508-1.507c0.164-0.164 0.265-0.39 0.265-0.64s-0.101-0.476-0.265-0.64v0l-3.183-3.185c-0.164-0.163-0.39-0.264-0.64-0.264-0.163 0-0.317 0.043-0.449 0.119l0.004-0.002-2.121 1.195c-0.345 0.197-0.758 0.312-1.198 0.312-0.675 0-1.285-0.272-1.729-0.713l-7.085-7.085c-0.441-0.443-0.714-1.053-0.714-1.727 0-0.44 0.116-0.853 0.319-1.21l-0.006 0.012 1.196-2.123c0.072-0.128 0.115-0.28 0.115-0.443 0-0.25-0.101-0.476-0.264-0.641l-3.183-3.181c-0.163-0.164-0.389-0.265-0.639-0.265-0 0-0.001 0-0.001 0h0z"></path>
</symbol>
</defs>
</svg>
